<svg width="48" height="49" viewBox="0 0 48 49" fill="none" xmlns="http://www.w3.org/2000/svg">
<path opacity="0.6" d="M48 24.9024C48 11.6486 37.2548 0.904297 24 0.904297C10.7452 0.904297 0 11.6486 0 24.9024C0 38.1561 10.7452 48.9004 24 48.9004C37.2548 48.9004 48 38.1561 48 24.9024Z" fill="#CDCDCD"/>
<path fill-rule="evenodd" clip-rule="evenodd" d="M28.8541 34.803C28.4504 34.2647 27.9999 33.6621 27.7424 33.0887C27.4207 32.3632 27.4792 31.4271 27.1047 30.7659C26.6424 29.9469 25.3317 29.4144 24.8871 28.5485C24.5067 27.8113 24.9572 27.3258 25.3259 26.8343C25.5951 26.4715 25.8115 26.1205 26.069 25.8923C26.2445 26.1321 26.3498 26.3721 26.6716 26.3954C26.8706 26.413 27.0754 26.1205 27.1748 26.1263C27.2099 26.1263 27.4207 26.3487 27.5435 26.4305C28.4329 27.0156 28.8015 25.8981 29.1584 25.1843C29.3223 24.8625 29.7669 23.6574 30.1648 23.6398C30.5042 23.6281 30.6447 24.0259 30.902 24.0084C32.1717 19.8427 33.5703 15.8057 33.7925 10.5868C33.0378 13.7696 32.3765 17.0226 31.0367 19.5676C30.8435 19.2284 31.0952 18.8597 31.2064 18.5613C32.0547 16.1684 32.8037 13.5999 33.2601 10.8266C32.2537 13.8574 31.3175 16.9524 29.9659 19.6379C29.8723 19.6203 29.9191 19.4624 29.7669 19.5033C29.4802 20.2171 29.0882 20.8198 28.6904 21.4224C28.9536 20.8665 28.4153 19.6788 28.0525 19.5735C27.4557 19.3981 26.8764 19.7842 26.4376 19.4039C26.3557 19.6262 26.2445 19.556 26.1041 19.6027C26.0572 19.6203 26.0632 19.7257 26.0339 19.7373C25.8642 19.8251 25.6009 19.8368 25.5307 20.0415C25.3903 20.4453 25.7999 20.8022 25.6652 21.3873C25.1269 20.7671 24.4658 20.2347 24.0152 19.5033C23.3131 18.3683 22.8859 17.0109 22.2013 15.8349C23.8981 14.4834 24.9514 11.6107 23.9508 8.83744C23.1316 6.57321 20.9433 4.45524 17.7603 4.66586C14.3666 4.89405 11.7218 8.10025 12.5117 12.0319C13.1612 15.2557 15.9932 17.7598 20.0773 16.9407C20.6449 18.7486 21.6104 20.1762 22.6987 21.4165C23.0731 21.8436 23.5237 22.183 23.8748 22.6276C23.4652 22.9084 22.6519 22.8382 22.529 23.3356C22.4705 23.5637 22.6344 23.9674 22.6987 24.2776C22.9035 25.3014 22.7923 26.4481 22.8684 27.437C22.9093 27.9634 23.1258 28.49 23.1727 29.0517C23.2194 29.6602 23.2019 30.2862 23.2721 30.9006C23.5354 33.2057 24.4131 34.9609 25.2908 36.6869C25.5131 37.1257 25.7296 37.5763 25.8935 38.0326C26.069 38.5182 26.145 39.0506 26.3323 39.5479C26.385 39.6883 26.4961 39.8053 26.5312 39.9165C26.5312 39.9165 26.5312 39.9165 26.5312 39.9223C26.5604 40.0101 27.0344 41.5839 27.1281 42.8419C27.1748 43.4855 27.1221 44.053 26.853 44.287L29.4627 43.0467C29.3047 42.7307 28.8834 42.684 28.5908 42.5084C28.468 42.0696 28.4387 41.543 28.4563 40.9637C30.1239 41.3675 31.8909 40.9052 32.6282 39.9574C32.6106 39.4601 33.1196 39.2554 33.3011 38.8459C31.4872 37.9331 30.0537 36.4119 28.8541 34.803ZM23.7109 8.63266C24.7291 11.1368 23.9392 14.4541 22.096 15.6301C21.8503 15.1913 22.2013 14.7876 22.33 14.3547C22.4003 14.1148 22.4588 13.875 22.4997 13.6175C22.5407 13.3776 22.4881 13.0558 22.5641 12.8101C22.6402 12.5702 23.1492 12.2894 23.3716 12.0377C23.9684 11.3532 24.4891 9.94911 23.5705 9.01295C23.354 7.64974 22.3125 6.83649 20.8789 6.72532C20.6917 6.71362 20.4753 6.77213 20.2763 6.72532C20.0539 6.67267 19.7848 6.35088 19.5391 6.15195C18.8076 5.57273 17.9007 5.15733 16.8124 5.01106C20.0305 4.14515 22.7631 6.29822 23.7109 8.63266ZM20.1768 13.0382C20.1593 13.167 20.2353 13.2021 20.212 13.3425C19.8082 13.4771 19.3928 14.0036 18.9363 13.676C18.9012 13.8165 18.6789 13.752 18.7667 13.91C18.5619 13.986 18.3161 14.0212 18.0587 14.0445C17.2629 12.5 16.6135 10.8033 16.2097 8.86669C17.0347 8.5566 17.9183 8.31087 18.9656 8.22896C19.5741 9.53954 20.2645 11.1192 20.446 12.6346C20.4343 12.6813 20.3875 12.6346 20.3757 12.5994C20.1475 12.6521 20.4343 13.0149 20.1768 13.0382ZM18.3629 14.5887C18.4215 14.4951 18.5677 14.4775 18.7024 14.4541C18.8427 15.3376 19.6151 15.5833 19.8784 16.3381C19.2407 16.0221 18.7842 15.2264 18.3629 14.5887ZM19.7088 16.6365C18.0119 16.7418 16.9119 15.7764 16.1746 14.9222C16.865 14.928 17.4385 14.8228 17.9592 14.6531C18.4976 15.3552 18.8896 16.2152 19.7088 16.6365ZM20.013 7.05296C20.3348 7.22264 20.4693 7.58539 20.721 7.82527C20.3465 7.83112 19.6912 7.82527 19.2056 7.82527C19.1471 7.60878 18.9247 7.39816 18.9363 7.22264C19.1002 7.22849 19.2056 7.17583 19.3401 7.15243C19.2816 7.67314 20.1709 7.63804 20.013 7.05296ZM23.5763 9.40492C24.3604 10.2182 23.512 11.5113 22.9386 11.9968C22.8157 11.9149 22.7572 11.7746 22.5348 11.7979C23.0088 11.131 23.5179 10.4932 23.5763 9.40492ZM22.4997 11.324C22.254 10.189 21.8795 9.18265 21.388 8.29917C22.1779 8.43959 22.845 8.70288 23.3364 9.14163C23.3248 10.1305 22.8859 10.7038 22.4997 11.324ZM22.9035 8.46299C22.4296 8.19385 21.7801 7.98323 21.1188 7.88962C20.9316 7.60293 20.7385 7.32795 20.5162 7.08222C21.9029 7.04126 23.0615 7.51518 23.3424 8.69703C23.1961 8.71458 23.0673 8.5566 22.9035 8.46299ZM18.7316 6.9184C18.3688 6.42108 18.0587 5.86526 17.5906 5.47327C18.4391 5.63709 19.2172 6.1578 19.7439 6.74872C19.3577 6.76043 19.0359 6.83064 18.7316 6.9184ZM18.5327 7.3572C18.5736 7.57369 18.7491 7.65559 18.7667 7.89547C17.7544 7.95983 16.9587 8.24066 16.1453 8.49809C16.2155 8.29332 16.473 8.22896 16.6485 8.1295C17.1752 7.83697 17.7954 7.56198 18.4624 7.3572H18.5327ZM19.4396 8.26407C19.4455 8.23481 19.4279 8.23481 19.4044 8.22896C19.7965 8.07685 20.4986 8.188 20.92 8.22896C21.3529 8.75552 21.7567 9.7385 21.9965 10.6511C22.0785 10.9729 22.2306 11.3708 22.1955 11.5931C22.137 12.0319 21.2885 12.5176 21.0194 12.7048C20.8322 12.5761 20.8615 12.3245 20.8204 12.1314C20.4928 10.7916 19.9661 9.42835 19.4396 8.26407ZM21.1891 15.1562C21.3002 15.2674 21.2769 15.5131 21.3587 15.6594C21.312 15.8057 21.1891 15.87 21.1248 15.9987C21.0837 15.794 21.2359 15.4839 21.1891 15.1562ZM21.4583 15.9636C21.4348 16.069 21.4933 16.0864 21.4933 16.1625C21.2769 16.2912 21.0311 16.3966 20.8204 16.5311C20.8965 16.3439 21.2476 16.1391 21.4583 15.9636ZM21.4583 13.676C21.3821 13.6409 21.3354 13.5766 21.3236 13.4771C21.3763 13.4361 21.4583 13.4361 21.4933 13.3776C21.5753 13.442 21.4524 13.5824 21.4583 13.676ZM21.1188 13.1436C21.4933 12.8101 21.9088 12.5176 22.2306 12.1373C22.3067 12.2074 22.2423 12.4181 22.2657 12.5409C21.8853 12.7399 21.5695 13.009 21.1188 13.1436ZM21.7917 13.243C21.9146 13.1378 22.1019 13.1085 22.1955 12.9739C22.2306 12.9681 22.2599 12.9797 22.2657 13.009C22.3535 13.6818 21.9731 14.4307 21.8268 14.9573C21.6104 14.5185 21.7741 13.7638 21.7917 13.243ZM16.2097 5.37381C16.4321 5.36211 16.6309 5.32115 16.8826 5.3387C17.4736 5.77751 17.9183 6.36258 18.2928 7.01786C17.4794 7.28115 16.7187 7.59708 16.0752 8.02419C15.9289 7.22849 15.8879 5.99399 16.2097 5.37381ZM17.69 14.1148C16.9235 14.1616 16.1277 14.1675 15.4373 14.0505C15.0219 13.4127 14.4953 12.4064 14.2261 11.4293C14.0564 10.8033 13.8927 10.2065 14.3608 9.88477C14.4778 9.91402 14.5596 9.97836 14.7293 9.94911C14.8815 9.873 14.981 9.69747 14.8991 9.48103C15.2151 9.3231 15.5251 9.16506 15.8411 9.01295C16.2916 10.8735 16.906 12.5819 17.69 14.1148ZM15.7708 5.50838C15.6538 5.83016 15.566 6.57321 15.6012 7.25775C15.6187 7.59123 15.7592 8.00663 15.7007 8.1997C15.6363 8.43374 14.9576 8.79063 14.7937 8.93685C14.4895 9.21191 14.2612 9.5512 13.9512 9.67999C13.8927 7.62048 14.4953 6.22216 15.7708 5.50838ZM14.8288 5.94133C14.156 6.67267 13.6879 7.7258 13.6176 9.07146C13.6059 9.31716 13.6995 9.6273 13.6528 9.87883C13.6059 10.1187 13.2314 10.3703 13.0793 10.5868C12.8687 10.8851 12.74 11.1368 12.6756 11.4586C12.3245 8.93685 13.4714 7.08807 14.8288 5.94133ZM13.1847 10.9905C13.0851 11.3883 12.816 11.9032 12.8804 12.5702C12.6346 12.0261 12.9448 11.3591 13.1847 10.9905ZM13.1496 12.5702C13.0851 11.8331 13.448 11.2304 13.7229 10.7214C13.9863 11.95 14.4193 13.0031 14.9692 13.951C14.3315 13.8047 13.7931 13.559 13.3544 13.2079C13.8576 13.1611 13.6352 12.2367 13.1496 12.5702ZM14.3959 14.1148C14.7528 14.2435 15.1916 14.302 15.4373 14.5536C14.6123 14.5419 13.8751 14.1441 13.4187 13.6468C13.682 13.793 14.0039 13.9744 14.3959 14.1148ZM19.0709 16.9759C16.2682 17.1805 14.5714 15.6185 13.4889 14.0153C13.8283 14.3137 14.1969 14.577 14.7644 14.7525C15.0336 14.8344 15.3612 14.811 15.6363 14.9222C15.8996 15.0216 16.1453 15.3844 16.3794 15.5951C17.1986 16.3381 18.4683 17.128 20.013 16.7711C19.7088 16.8881 19.3928 16.9524 19.0709 16.9759ZM20.0423 14.2493C19.7906 14.2435 19.8725 14.5711 19.7731 14.7174C19.6034 14.5829 19.504 14.3781 19.4337 14.1441C19.8024 14.1031 20.0773 13.9568 20.4108 13.875C20.4693 14.2142 20.6567 14.4366 20.8146 14.6823C20.8439 15.361 20.7912 15.9636 20.5805 16.3966C20.1475 15.9285 20.0423 15.0626 20.0423 14.2493ZM23.1024 20.2347C22.0024 19.3746 21.4875 17.9237 20.7152 16.7359C20.9433 16.5487 21.2593 16.4493 21.5226 16.2972C21.9088 17.7598 22.4997 19.0177 23.1376 20.2347C23.1843 20.2756 23.1434 20.2522 23.1024 20.2347ZM26.6189 44.3982C26.7127 44.3806 26.7887 44.3455 26.853 44.287L26.6189 44.3982Z" fill="#2D2C2B"/>
</svg>
