<svg width="14" height="14" viewBox="0 0 14 14" fill="none" xmlns="http://www.w3.org/2000/svg">
<path fill-rule="evenodd" clip-rule="evenodd" d="M11.1089 3.15528C11.1089 2.85193 10.9261 2.57846 10.6459 2.46237C10.3656 2.34628 10.043 2.41045 9.82855 2.62495L7.91542 4.53808C7.78516 4.66535 7.70107 4.83968 7.69063 5.03357C7.68852 5.07187 7.68934 5.11042 7.69316 5.14888C7.70525 5.27173 7.74697 5.38589 7.8111 5.48408C7.92395 5.65692 8.10619 5.78034 8.31827 5.81481C8.35793 5.8213 8.39845 5.82465 8.43951 5.82465H10.3556L10.3733 5.82507C10.3922 5.82557 10.4206 5.82643 10.4561 5.82786C10.5275 5.83073 10.6258 5.83579 10.7334 5.84448C10.9764 5.8641 11.1709 5.89551 11.2496 5.92375C11.5117 6.01792 11.7497 6.16888 11.9467 6.36582C12.1436 6.56276 12.2946 6.80082 12.3888 7.06294C12.4829 7.32506 12.518 7.60476 12.4914 7.88201C12.4868 7.92964 12.4868 7.97759 12.4914 8.02522C12.518 8.30247 12.4829 8.58217 12.3888 8.84429C12.2946 9.10641 12.1436 9.34446 11.9467 9.54141C11.7497 9.73835 11.5117 9.88931 11.2496 9.98348C10.9874 10.0776 10.7077 10.1127 10.4305 10.0861C10.4067 10.0838 10.3828 10.0827 10.3589 10.0827C9.98941 10.0827 9.58499 9.88361 9.09364 9.39899C8.60278 8.91485 8.13224 8.25453 7.61202 7.5201L7.58952 7.48834C7.09609 6.79168 6.5544 6.02687 5.95968 5.44029C5.36417 4.85295 4.61091 4.33801 3.6778 4.32482C3.19186 4.28328 2.70254 4.3471 2.2433 4.51208C1.77305 4.68102 1.34597 4.95184 0.992654 5.30516C0.639333 5.65848 0.368509 6.08556 0.199575 6.5558C0.0387444 7.00349 -0.0259484 7.47976 0.00938044 7.95361C-0.0259484 8.42746 0.0387444 8.90374 0.199575 9.35143C0.368509 9.82167 0.639333 10.2487 0.992654 10.6021C1.34597 10.9554 1.77305 11.2262 2.2433 11.3951C2.70446 11.5608 3.19596 11.6245 3.6839 11.5819C4.37657 11.5628 5.04204 11.3064 5.56866 10.8551C5.88318 10.5856 5.91966 10.1121 5.65013 9.79762C5.38061 9.48309 4.90714 9.44661 4.59261 9.71614C4.32341 9.94683 3.98223 10.0765 3.62777 10.0828C3.60831 10.0831 3.58887 10.0842 3.5695 10.0861C3.29225 10.1127 3.01255 10.0776 2.75043 9.98348C2.48831 9.88931 2.25026 9.73835 2.05331 9.54141C1.85637 9.34446 1.70541 9.10641 1.61124 8.84429C1.51708 8.58217 1.48204 8.30247 1.50863 8.02522C1.5132 7.97759 1.5132 7.92964 1.50863 7.88201C1.48204 7.60476 1.51708 7.32506 1.61124 7.06294C1.70541 6.80082 1.85637 6.56276 2.05331 6.36582C2.25026 6.16888 2.48831 6.01792 2.75043 5.92375C3.01255 5.82959 3.29225 5.79454 3.5695 5.82114C3.5933 5.82342 3.6172 5.82456 3.64111 5.82456C4.01059 5.82456 4.41501 6.02362 4.90636 6.50824C5.39722 6.99238 5.86776 7.6527 6.38798 8.38713L6.41048 8.41889C6.90391 9.11555 7.4456 9.88036 8.04032 10.4669C8.63583 11.0543 9.38909 11.5692 10.3222 11.5824C10.8081 11.6239 11.2975 11.5601 11.7567 11.3951C12.227 11.2262 12.654 10.9554 13.0073 10.6021C13.3607 10.2487 13.6315 9.82167 13.8004 9.35143C13.9613 8.90374 14.0259 8.42746 13.9906 7.95361C14.0259 7.47976 13.9613 7.00349 13.8004 6.5558C13.6315 6.08556 13.3607 5.65848 13.0073 5.30516C12.654 4.95184 12.227 4.68102 11.7567 4.51208C11.5584 4.44085 11.3173 4.39959 11.1089 4.37455V3.15528Z" fill="#FFD06D"/>
</svg>
