<svg width="40" height="41" viewBox="0 0 40 41" fill="none" xmlns="http://www.w3.org/2000/svg">
<path fill-rule="evenodd" clip-rule="evenodd" d="M15.0001 7.65625C15.2717 7.65631 15.5359 7.74483 15.7527 7.90841C15.9695 8.072 16.1271 8.30176 16.2017 8.56292L17.5567 13.3063C17.8485 14.3278 18.3958 15.2581 19.147 16.0093C19.8982 16.7605 20.8285 17.3078 21.8501 17.5996L26.5934 18.9546C26.8544 19.0294 27.084 19.1871 27.2474 19.4039C27.4108 19.6207 27.4992 19.8848 27.4992 20.1562C27.4992 20.4277 27.4108 20.6918 27.2474 20.9086C27.084 21.1254 26.8544 21.2832 26.5934 21.3579L21.8501 22.7129C20.8285 23.0047 19.8982 23.552 19.147 24.3032C18.3958 25.0544 17.8485 25.9847 17.5567 27.0063L16.2017 31.7496C16.127 32.0106 15.9693 32.2401 15.7525 32.4035C15.5357 32.567 15.2716 32.6554 15.0001 32.6554C14.7286 32.6554 14.4645 32.567 14.2477 32.4035C14.0309 32.2401 13.8732 32.0106 13.7984 31.7496L12.4434 27.0063C12.1517 25.9847 11.6043 25.0544 10.8531 24.3032C10.1019 23.552 9.17161 23.0047 8.15008 22.7129L3.40674 21.3579C3.14575 21.2832 2.91619 21.1254 2.75278 20.9086C2.58937 20.6918 2.50098 20.4277 2.50098 20.1562C2.50098 19.8848 2.58937 19.6207 2.75278 19.4039C2.91619 19.1871 3.14575 19.0294 3.40674 18.9546L8.15008 17.5996C9.17161 17.3078 10.1019 16.7605 10.8531 16.0093C11.6043 15.2581 12.1517 14.3278 12.4434 13.3063L13.7984 8.56292C13.873 8.30176 14.0306 8.072 14.2475 7.90841C14.4643 7.74483 14.7285 7.65631 15.0001 7.65625ZM30.0001 2.65625C30.2789 2.65609 30.5498 2.74919 30.7697 2.92073C30.9896 3.09226 31.1457 3.33239 31.2134 3.60292L31.6434 5.32958C32.0367 6.89625 33.2601 8.11958 34.8267 8.51292L36.5534 8.94292C36.8245 9.01005 37.0652 9.16601 37.2373 9.38592C37.4094 9.60582 37.5029 9.87702 37.5029 10.1563C37.5029 10.4355 37.4094 10.7067 37.2373 10.9266C37.0652 11.1465 36.8245 11.3024 36.5534 11.3696L34.8267 11.7996C33.2601 12.1929 32.0367 13.4163 31.6434 14.9829L31.2134 16.7096C31.1463 16.9806 30.9903 17.2214 30.7704 17.3935C30.5505 17.5656 30.2793 17.659 30.0001 17.659C29.7208 17.659 29.4497 17.5656 29.2297 17.3935C29.0098 17.2214 28.8539 16.9806 28.7867 16.7096L28.3567 14.9829C28.1644 14.2136 27.7667 13.5111 27.2059 12.9504C26.6452 12.3897 25.9427 11.9919 25.1734 11.7996L23.4467 11.3696C23.1757 11.3024 22.9349 11.1465 22.7629 10.9266C22.5908 10.7067 22.4973 10.4355 22.4973 10.1563C22.4973 9.87702 22.5908 9.60582 22.7629 9.38592C22.9349 9.16601 23.1757 9.01005 23.4467 8.94292L25.1734 8.51292C25.9427 8.3206 26.6452 7.92283 27.2059 7.36212C27.7667 6.80142 28.1644 6.09887 28.3567 5.32958L28.7867 3.60292C28.8544 3.33239 29.0106 3.09226 29.2305 2.92073C29.4503 2.74919 29.7212 2.65609 30.0001 2.65625ZM27.5001 25.1563C27.7626 25.1561 28.0185 25.2386 28.2315 25.3921C28.4445 25.5455 28.6038 25.7622 28.6867 26.0112L29.3434 27.9829C29.5934 28.7279 30.1767 29.3146 30.9234 29.5629L32.8951 30.2213C33.1434 30.3046 33.3592 30.4638 33.5121 30.6765C33.665 30.8891 33.7472 31.1444 33.7472 31.4063C33.7472 31.6681 33.665 31.9234 33.5121 32.136C33.3592 32.3487 33.1434 32.5079 32.8951 32.5913L30.9234 33.2496C30.1784 33.4996 29.5917 34.0829 29.3434 34.8296L28.6851 36.8013C28.6017 37.0495 28.4425 37.2654 28.2299 37.4183C28.0172 37.5712 27.762 37.6534 27.5001 37.6534C27.2382 37.6534 26.9829 37.5712 26.7703 37.4183C26.5577 37.2654 26.3984 37.0495 26.3151 36.8013L25.6567 34.8296C25.534 34.4617 25.3273 34.1275 25.0531 33.8532C24.7789 33.579 24.4446 33.3724 24.0767 33.2496L22.1051 32.5913C21.8568 32.5079 21.641 32.3487 21.4881 32.136C21.3352 31.9234 21.2529 31.6681 21.2529 31.4063C21.2529 31.1444 21.3352 30.8891 21.4881 30.6765C21.641 30.4638 21.8568 30.3046 22.1051 30.2213L24.0767 29.5629C24.8217 29.3129 25.4084 28.7296 25.6567 27.9829L26.3151 26.0112C26.3979 25.7624 26.557 25.546 26.7696 25.3926C26.9823 25.2391 27.2378 25.1565 27.5001 25.1563Z" fill="#FF6633"/>
</svg>
